<?xml version="1.0" encoding="UTF-8"?>
<svg id="Layer_2" data-name="Layer 2" xmlns="http://www.w3.org/2000/svg" viewBox="0 0 102.41 115.33">
  <defs>
    <style>
      .cls-1 {
        fill: #fff;
      }
    </style>
  </defs>
  <g id="Layer_1-2" data-name="Layer 1">
    <path class="cls-1" d="M102.41,26.28V1.73c0-.95-.77-1.73-1.73-1.73h-24.55c-.95,0-1.73.77-1.73,1.73v23.55c0,.95-.77,1.73-1.73,1.73h-14.72s-54.45,0-54.45,0c-.95,0-1.73.77-1.73,1.73v20.55c0,.95.77,1.73,1.73,1.73h45.21c1.26,0,2.01.99,1.66,2.21-6.06,21.46-25.49,37.37-48.69,38.11C.76,91.35,0,92.1,0,93.05v20.55c0,.96.79,1.75,1.75,1.73,31.58-.71,58.41-20.6,69.33-48.47.69-1.77,3.32-1.26,3.32.64v44.88c0,.95.77,1.73,1.73,1.73h24.55c.95,0,1.73-.77,1.73-1.73v-60.66c0-.95-.77-1.73-1.73-1.73h-23.55c-.95,0-1.73-.77-1.73-1.73v-18.55c0-.95.77-1.73,1.73-1.73h23.55c.95,0,1.73-.77,1.73-1.73Z"/>
  </g>
</svg>